static_grf.mot
version=1
nRows=22
nColumns 19
inDegrees=yes
endheader
time	1_ground_force_vx	1_ground_force_vy	1_ground_force_vz	1_ground_force_px	1_ground_force_py	1_ground_force_pz	1_ground_torque_x	1_ground_torque_y	1_ground_torque_z	2_ground_force_vx	2_ground_force_vy	2_ground_force_vz	2_ground_force_px	2_ground_force_py	2_ground_force_pz	2_ground_torque_x	2_ground_torque_y	2_ground_torque_z
            0.453500	           -2.767665	          277.889189	          -22.188781	           -0.242816	            0.005930	           -0.337463	           -0.014872	            1.493226	           -0.119230	            0.230622	          263.435465	           24.779230	           -0.251309	            0.005467	           -0.666935	           -0.000800	           -0.914319	           -0.086003
            0.454000	           -2.768006	          277.889779	          -22.326349	           -0.243075	            0.005932	           -0.337822	           -0.015214	            1.527389	           -0.122714	            0.370528	          263.619946	           24.826755	           -0.251084	            0.005468	           -0.666982	           -0.001272	           -0.904860	           -0.085216
            0.454500	           -2.493454	          278.791719	          -22.460735	           -0.243184	            0.005930	           -0.337302	           -0.014159	            1.583116	           -0.127543	            0.557824	          263.621459	           24.592035	           -0.251004	            0.005468	           -0.666985	           -0.001987	           -0.939221	           -0.087616
            0.455000	           -2.630282	          278.069647	          -22.234205	           -0.243595	            0.005929	           -0.337209	           -0.014240	            1.505429	           -0.120373	            0.462898	          263.988565	           24.828029	           -0.250912	            0.005470	           -0.667358	           -0.001606	           -0.915829	           -0.086133
            0.455500	           -2.584487	          277.709321	          -22.281721	           -0.243327	            0.005932	           -0.337864	           -0.014148	            1.520195	           -0.121971	            0.509125	          264.172540	           24.922523	           -0.251319	            0.005468	           -0.667191	           -0.001803	           -0.935376	           -0.088245
            0.456000	           -2.401163	          277.349022	          -22.329578	           -0.243030	            0.005931	           -0.337639	           -0.013401	            1.547895	           -0.124622	            0.606709	          263.068871	           24.683900	           -0.251377	            0.005465	           -0.666495	           -0.002319	           -1.005644	           -0.094360
            0.456500	           -2.492640	          278.069477	          -22.188691	           -0.243161	            0.005930	           -0.337404	           -0.013745	            1.533375	           -0.122356	            0.275458	          263.988223	           24.734253	           -0.251137	            0.005468	           -0.667213	           -0.000927	           -0.888443	           -0.083242
            0.457000	           -2.630136	          277.889215	          -22.189122	           -0.243388	            0.005930	           -0.337325	           -0.014633	            1.546030	           -0.123449	            0.324322	          263.435803	           24.779190	           -0.251226	            0.005466	           -0.666794	           -0.001166	           -0.947043	           -0.089080
            0.457500	           -2.492688	          277.709142	          -22.236093	           -0.243039	            0.005932	           -0.337789	           -0.013733	            1.530030	           -0.122509	            0.276684	          263.620779	           24.498298	           -0.251164	            0.005469	           -0.667408	           -0.000938	           -0.893864	           -0.083067
            0.458000	           -2.401083	          277.529122	          -22.282949	           -0.243360	            0.005930	           -0.337442	           -0.013459	            1.555675	           -0.124906	            0.275314	          263.989395	           24.405756	           -0.251439	            0.005467	           -0.667070	           -0.000888	           -0.851701	           -0.078740
            0.458500	           -2.722277	          277.889984	          -22.372318	           -0.242926	            0.005929	           -0.337288	           -0.015075	            1.538820	           -0.123887	            0.320293	          264.541043	           24.689276	           -0.251370	            0.005469	           -0.667562	           -0.001125	           -0.928794	           -0.086683
            0.459000	           -2.492753	          278.069674	          -22.234547	           -0.243371	            0.005931	           -0.337545	           -0.013542	            1.510649	           -0.120792	            0.465474	          263.252672	           24.637689	           -0.251166	            0.005466	           -0.666751	           -0.001692	           -0.957008	           -0.089566
            0.459500	           -2.263458	          278.249818	          -22.188487	           -0.243176	            0.005930	           -0.337415	           -0.012780	            1.571084	           -0.125283	            0.509707	          263.989069	           24.734153	           -0.251059	            0.005468	           -0.667145	           -0.001751	           -0.906776	           -0.084959
            0.460000	           -2.263065	          277.348065	          -22.100640	           -0.243286	            0.005931	           -0.337735	           -0.012601	            1.544270	           -0.123056	            0.419371	          263.067693	           24.824764	           -0.251333	            0.005466	           -0.666776	           -0.001465	           -0.918891	           -0.086713
            0.460500	           -2.448163	          278.071845	          -22.739076	           -0.243413	            0.005931	           -0.337690	           -0.013547	            1.538713	           -0.125827	            0.509042	          264.173210	           24.734810	           -0.250895	            0.005469	           -0.667262	           -0.001794	           -0.931059	           -0.087176
            0.461000	           -2.355240	          277.529130	          -22.283063	           -0.243072	            0.005930	           -0.337510	           -0.013489	            1.589516	           -0.127624	            0.557242	          263.804930	           24.780404	           -0.250994	            0.005468	           -0.667030	           -0.001951	           -0.923534	           -0.086752
            0.461500	           -2.355617	          278.971452	          -22.322735	           -0.243377	            0.005929	           -0.337290	           -0.012944	            1.532906	           -0.122660	            0.513153	          263.067361	           25.012437	           -0.251117	            0.005467	           -0.666920	           -0.001783	           -0.913808	           -0.086885
            0.462000	           -2.676467	          278.070228	          -22.371659	           -0.243722	            0.005931	           -0.337570	           -0.014932	            1.551354	           -0.124812	            0.421283	          262.515879	           24.635080	           -0.251589	            0.005462	           -0.665995	           -0.001480	           -0.922438	           -0.086564
            0.462500	           -2.355584	          278.791156	          -22.323508	           -0.243252	            0.005930	           -0.337478	           -0.012845	            1.520301	           -0.121734	            0.417295	          263.620784	           24.639023	           -0.251079	            0.005468	           -0.666983	           -0.001469	           -0.927902	           -0.086725
            0.463000	           -2.447171	          278.250372	          -22.325599	           -0.243492	            0.005931	           -0.337707	           -0.013268	            1.508578	           -0.121042	            0.462234	          264.172706	           24.828686	           -0.251623	            0.005468	           -0.667544	           -0.001549	           -0.885296	           -0.083206
            0.463500	           -2.585107	          278.611467	          -22.461280	           -0.243021	            0.005929	           -0.337220	           -0.014071	            1.516458	           -0.122255	            0.559195	          263.252843	           24.684577	           -0.251147	            0.005468	           -0.667039	           -0.002146	           -1.010450	           -0.094747
            0.464000	           -2.447755	          277.710724	          -22.603054	           -0.243224	            0.005931	           -0.337574	           -0.013594	            1.542333	           -0.125531	            0.513051	          263.068198	           24.777796	           -0.250828	            0.005468	           -0.666849	           -0.001816	           -0.930939	           -0.087683
